<svg width="49" height="19" viewBox="0 0 49 19" fill="none" xmlns="http://www.w3.org/2000/svg">
<path d="M0 0H3.62167L8.92166 12.4348L8.48 0H12.2783V18.8406H9.36333L0 0Z" fill="white"/>
<path fill-rule="evenodd" clip-rule="evenodd" d="M17.995 18.8406H21.6166L12.2533 0H9.33832V18.8406H13.1366L12.9964 13.942H15.9262L17.995 18.8406ZM14.6532 10.9275L12.7833 6.5L12.9101 10.9275H14.6532Z" fill="white"/>
<path d="M21.4948 2.55966C22.2428 2.55966 22.8168 2.74366 23.2168 3.11166C23.6168 3.47566 23.8168 3.98366 23.8168 4.63566C23.8168 5.28766 23.6208 5.80366 23.2288 6.18366C22.8408 6.56366 22.2468 6.75366 21.4468 6.75366H20.0128V2.55966H21.4948ZM21.5428 5.92566C21.9708 5.92566 22.2988 5.81766 22.5268 5.60166C22.7588 5.38566 22.8748 5.07166 22.8748 4.65966C22.8748 4.24766 22.7588 3.93166 22.5268 3.71166C22.2988 3.48766 21.9468 3.37566 21.4708 3.37566H20.9488V5.92566H21.5428ZM27.6481 2.55966V3.39366H25.5601V4.25766H27.4381V5.05566H25.5601V5.92566H27.7141V6.75366H24.6241V2.55966H27.6481ZM29.8999 3.28566C29.7439 3.28566 29.6199 3.32366 29.5279 3.39966C29.4399 3.47166 29.3959 3.56966 29.3959 3.69366C29.3959 3.81366 29.4499 3.90966 29.5579 3.98166C29.6699 4.05366 29.9239 4.13966 30.3199 4.23966C30.7199 4.33566 31.0299 4.48166 31.2499 4.67766C31.4699 4.87366 31.5799 5.15966 31.5799 5.53566C31.5799 5.91166 31.4379 6.21766 31.1539 6.45366C30.8739 6.68566 30.5039 6.80166 30.0439 6.80166C29.3799 6.80166 28.7819 6.55566 28.2499 6.06366L28.8079 5.37966C29.2599 5.77566 29.6779 5.97366 30.0619 5.97366C30.2339 5.97366 30.3679 5.93766 30.4639 5.86566C30.5639 5.78966 30.6139 5.68966 30.6139 5.56566C30.6139 5.43766 30.5619 5.33766 30.4579 5.26566C30.3539 5.18966 30.1479 5.11366 29.8399 5.03766C29.3519 4.92166 28.9939 4.77166 28.7659 4.58766C28.5419 4.39966 28.4299 4.10766 28.4299 3.71166C28.4299 3.31166 28.5719 3.00366 28.8559 2.78766C29.1439 2.57166 29.5019 2.46366 29.9299 2.46366C30.2099 2.46366 30.4899 2.51166 30.7699 2.60766C31.0499 2.70366 31.2939 2.83966 31.5019 3.01566L31.0279 3.69966C30.6639 3.42366 30.2879 3.28566 29.8999 3.28566ZM32.376 2.55966H33.312V6.75366H32.376V2.55966ZM37.0688 4.61766H38.0108V6.10566C37.5948 6.56966 37.0188 6.80166 36.2828 6.80166C35.6668 6.80166 35.1488 6.59766 34.7288 6.18966C34.3128 5.78166 34.1048 5.26766 34.1048 4.64766C34.1048 4.02366 34.3168 3.50366 34.7408 3.08766C35.1688 2.67166 35.6828 2.46366 36.2828 2.46366C36.8868 2.46366 37.4108 2.66166 37.8548 3.05766L37.3688 3.75966C37.1808 3.59566 37.0068 3.48366 36.8468 3.42366C36.6908 3.35966 36.5208 3.32766 36.3368 3.32766C35.9808 3.32766 35.6808 3.44966 35.4368 3.69366C35.1928 3.93366 35.0708 4.25166 35.0708 4.64766C35.0708 5.04366 35.1868 5.36166 35.4188 5.60166C35.6548 5.83766 35.9348 5.95566 36.2588 5.95566C36.5828 5.95566 36.8528 5.89366 37.0688 5.76966V4.61766ZM41.7788 2.55966H42.7148V6.75366H41.7788L39.7808 4.12566V6.75366H38.8448V2.55966H39.7208L41.7788 5.25966V2.55966ZM21.4948 9.55966C22.1388 9.55966 22.6068 9.68566 22.8988 9.93766C23.1948 10.1857 23.3428 10.5697 23.3428 11.0897C23.3428 11.6057 23.1908 11.9837 22.8868 12.2237C22.5868 12.4637 22.1268 12.5837 21.5068 12.5837H20.9488V13.7537H20.0128V9.55966H21.4948ZM21.5788 11.7737C21.8908 11.7737 22.1028 11.7117 22.2148 11.5877C22.3268 11.4597 22.3828 11.2757 22.3828 11.0357C22.3828 10.7917 22.3088 10.6197 22.1608 10.5197C22.0168 10.4157 21.7908 10.3637 21.4828 10.3637H20.9488V11.7737H21.5788ZM27.4753 10.9517C27.4753 11.6237 27.2093 12.0577 26.6773 12.2537L27.7393 13.7537H26.5873L25.6573 12.4157H25.0093V13.7537H24.0733V9.55966H25.6633C26.3153 9.55966 26.7793 9.66966 27.0553 9.88966C27.3353 10.1097 27.4753 10.4637 27.4753 10.9517ZM25.6933 11.6057C26.0133 11.6057 26.2313 11.5537 26.3473 11.4497C26.4633 11.3457 26.5213 11.1817 26.5213 10.9577C26.5213 10.7297 26.4613 10.5737 26.3413 10.4897C26.2213 10.4057 26.0113 10.3637 25.7113 10.3637H25.0093V11.6057H25.6933ZM31.6017 11.6357C31.6017 11.2597 31.4817 10.9397 31.2417 10.6757C31.0017 10.4117 30.7057 10.2797 30.3537 10.2797C30.0057 10.2797 29.7117 10.4117 29.4717 10.6757C29.2317 10.9397 29.1117 11.2597 29.1117 11.6357C29.1117 12.0077 29.2317 12.3257 29.4717 12.5897C29.7117 12.8497 30.0057 12.9797 30.3537 12.9797C30.7057 12.9797 31.0017 12.8497 31.2417 12.5897C31.4817 12.3257 31.6017 12.0077 31.6017 11.6357ZM31.9197 13.1777C31.4957 13.5897 30.9737 13.7957 30.3537 13.7957C29.7337 13.7957 29.2117 13.5897 28.7877 13.1777C28.3637 12.7617 28.1517 12.2457 28.1517 11.6297C28.1517 11.0137 28.3637 10.4997 28.7877 10.0877C29.2117 9.67166 29.7337 9.46366 30.3537 9.46366C30.9737 9.46366 31.4957 9.67166 31.9197 10.0877C32.3437 10.4997 32.5557 11.0137 32.5557 11.6297C32.5557 12.2457 32.3437 12.7617 31.9197 13.1777ZM33.3699 10.3637V9.55966H35.5539V12.2957C35.5539 12.7957 35.4239 13.1697 35.1639 13.4177C34.9079 13.6657 34.5779 13.7897 34.1739 13.7897C33.6699 13.7897 33.2299 13.5957 32.8539 13.2077L33.3399 12.5357C33.5919 12.8077 33.8559 12.9437 34.1319 12.9437C34.2639 12.9437 34.3759 12.8937 34.4679 12.7937C34.5639 12.6897 34.6119 12.5357 34.6119 12.3317V10.3637H33.3699ZM39.5719 9.55966V10.3937H37.4839V11.2577H39.3619V12.0557H37.4839V12.9257H39.6379V13.7537H36.5479V9.55966H39.5719ZM42.3997 12.9257C42.8597 12.9257 43.2357 12.7437 43.5277 12.3797L44.1277 12.9977C43.6517 13.5337 43.0897 13.8017 42.4417 13.8017C41.7977 13.8017 41.2657 13.5977 40.8457 13.1897C40.4297 12.7817 40.2217 12.2677 40.2217 11.6477C40.2217 11.0237 40.4337 10.5037 40.8577 10.0877C41.2857 9.67166 41.8077 9.46366 42.4237 9.46366C43.1117 9.46366 43.6877 9.72566 44.1517 10.2497L43.5697 10.9097C43.2737 10.5417 42.9057 10.3577 42.4657 10.3577C42.1137 10.3577 41.8117 10.4737 41.5597 10.7057C41.3117 10.9337 41.1877 11.2437 41.1877 11.6357C41.1877 12.0237 41.3057 12.3357 41.5417 12.5717C41.7777 12.8077 42.0637 12.9257 42.3997 12.9257ZM46.6442 10.3697V13.7537H45.7082V10.3697H44.5202V9.55966H47.8322V10.3697H46.6442Z" fill="white"/>
</svg>
